<?xml version="1.0" encoding="UTF-8"?>
<svg version="1.1" xmlns="http://www.w3.org/2000/svg" width="147" height="134">
<path d="M0 0 C5.77997948 -0.09967465 11.55944688 -0.17184583 17.34008789 -0.21972656 C19.30209074 -0.23970918 21.26403505 -0.26690484 23.22583008 -0.30175781 C47.08083902 -0.71462129 47.08083902 -0.71462129 57.4375 7.1875 C63.22153133 12.80525527 65.19914884 18.43673959 65.5 26.4375 C65.31150395 32.62887023 63.77117566 37.50821757 61 43 C60.62617187 43.75152344 60.25234375 44.50304687 59.8671875 45.27734375 C59.58101562 45.84582031 59.29484375 46.41429687 59 47 C59.433125 47.44988281 59.86625 47.89976563 60.3125 48.36328125 C64.5530951 53.26156124 65.66492298 56.61628621 65.26171875 63.05859375 C65.13216797 64.51458984 65.13216797 64.51458984 65 66 C64.96519531 67.04285156 64.93039063 68.08570312 64.89453125 69.16015625 C64.53166685 77.07452311 63.00769247 81.12598275 57.1875 86.6875 C50.48305437 91.55150958 44.97278558 92.48419607 36.875 92.6875 C35.94357178 92.72020996 35.01214355 92.75291992 34.05249023 92.78662109 C31.36845013 92.87463768 28.68483458 92.94185041 26 93 C24.75605469 93.02964844 23.51210938 93.05929688 22.23046875 93.08984375 C14.45446336 93.17613727 6.74595752 92.65033526 -1 92 C-2.30320993 88.03491705 -2.14770726 84.02223501 -2.14526367 79.8984375 C-2.14862228 79.08497864 -2.1519809 78.27151978 -2.15544128 77.43341064 C-2.16493232 74.74725819 -2.1668933 72.06116817 -2.16796875 69.375 C-2.171182 67.50699844 -2.17454612 65.63899713 -2.17805481 63.77099609 C-2.18404101 59.85709042 -2.18589517 55.94320681 -2.18530273 52.02929688 C-2.185201 47.01213864 -2.19886719 41.99512157 -2.21607494 36.97799683 C-2.22718672 33.12100574 -2.22922222 29.26404891 -2.22869301 25.40704346 C-2.22987383 23.55706291 -2.2343013 21.7070815 -2.24202538 19.8571167 C-2.25181109 17.27183084 -2.24895314 14.68685321 -2.24291992 12.1015625 C-2.24853943 11.33676575 -2.25415894 10.57196899 -2.25994873 9.78399658 C-2.2376926 6.03524091 -2.09718746 3.18076085 0 0 Z M17 18 C16.19184587 22.53573011 15.89398342 26.76224267 15.9375 31.375 C15.94652344 32.62023437 15.95554687 33.86546875 15.96484375 35.1484375 C15.97644531 36.08945313 15.98804687 37.03046875 16 38 C20.06236402 38.08729047 24.12448589 38.14048992 28.1875 38.1875 C29.33798828 38.21263672 30.48847656 38.23777344 31.67382812 38.26367188 C32.78564453 38.27333984 33.89746094 38.28300781 35.04296875 38.29296875 C36.57473755 38.31653442 36.57473755 38.31653442 38.13745117 38.34057617 C41.48707631 37.94204934 43.30316765 36.99829227 46 35 C48.4434877 31.33476845 48.84707648 28.26029643 48 24 C45.70800597 21.03949126 45.70800597 21.03949126 43 19 C42.67 18.67 42.34 18.34 42 18 C40.14630389 17.91262355 38.28932459 17.89301847 36.43359375 17.90234375 C35.30888672 17.90556641 34.18417969 17.90878906 33.02539062 17.91210938 C31.24938477 17.92467773 31.24938477 17.92467773 29.4375 17.9375 C28.24962891 17.94201172 27.06175781 17.94652344 25.83789062 17.95117188 C22.89187774 17.96300325 19.94596319 17.97948713 17 18 Z M17 55 C15.75325666 58.74023002 15.85447245 62.2316086 15.875 66.125 C15.87113281 66.86621094 15.86726563 67.60742188 15.86328125 68.37109375 C15.53253342 71.98229969 15.53253342 71.98229969 17 75 C21.24170698 75.33793349 25.49656918 75.32511968 29.75 75.375 C31.54050781 75.43107422 31.54050781 75.43107422 33.3671875 75.48828125 C40.24507133 75.66121581 40.24507133 75.66121581 46.2578125 72.72265625 C48.59959962 69.06295754 49.60304764 66.34873788 49 62 C47.3093672 58.92371131 45.18185378 56.59092689 42 55 C40.1136088 54.915085 38.22421485 54.892807 36.3359375 54.90234375 C34.65371094 54.90717773 34.65371094 54.90717773 32.9375 54.91210938 C31.1740625 54.92467773 31.1740625 54.92467773 29.375 54.9375 C28.19164062 54.94201172 27.00828125 54.94652344 25.7890625 54.95117188 C22.85932493 54.96298533 19.92968728 54.97945742 17 55 Z " fill="#1094C5" transform="translate(6,37)"/>
<path d="M0 0 C0.71913071 -0.01140015 1.43826141 -0.02280029 2.17918396 -0.0345459 C3.69955631 -0.05338181 5.22000914 -0.06648837 6.74047852 -0.07421875 C9.02837559 -0.0934954 11.31256529 -0.15551603 13.59960938 -0.21875 C23.42764889 -0.35667052 30.05484414 0.97336711 38.49609375 6.40625 C38.49609375 7.06625 38.49609375 7.72625 38.49609375 8.40625 C39.15609375 8.40625 39.81609375 8.40625 40.49609375 8.40625 C40.49609375 9.06625 40.49609375 9.72625 40.49609375 10.40625 C41.15609375 10.40625 41.81609375 10.40625 42.49609375 10.40625 C47.28352698 18.38530539 49.54217429 24.97907179 48.49609375 34.40625 C47.12034769 39.47444657 45.41302693 44.03085023 42.49609375 48.40625 C41.83609375 48.40625 41.17609375 48.40625 40.49609375 48.40625 C40.23828125 49.01339844 39.98046875 49.62054688 39.71484375 50.24609375 C37.01062615 55.0391461 31.18181536 57.36301798 26.18359375 59.21875 C17.43194216 61.6429164 6.28376881 61.60316877 -2.50390625 59.40625 C-2.50390625 71.61625 -2.50390625 83.82625 -2.50390625 96.40625 C-11.50390625 97.53125 -11.50390625 97.53125 -16.00390625 96.96875 C-16.85984375 96.86691406 -17.71578125 96.76507813 -18.59765625 96.66015625 C-19.54125 96.53447266 -19.54125 96.53447266 -20.50390625 96.40625 C-20.55357211 91.26506945 -20.5897512 86.12403049 -20.61376953 80.98266602 C-20.62378893 79.23589645 -20.6374082 77.4891435 -20.65478516 75.74243164 C-20.67921294 73.22277715 -20.69043014 70.70334561 -20.69921875 68.18359375 C-20.70954132 67.41039291 -20.71986389 66.63719208 -20.73049927 65.84056091 C-20.73169895 59.96182055 -20.00926919 54.80367987 -16.81640625 49.71875 C-8.26258229 41.16492604 2.53851498 42.16573826 13.90625 41.80078125 C14.94910156 41.76339844 15.99195313 41.72601563 17.06640625 41.6875 C18.01273926 41.65720703 18.95907227 41.62691406 19.93408203 41.59570312 C22.26795358 41.42312028 24.28059876 41.15202315 26.49609375 40.40625 C29.4735939 36.33177611 29.56242419 31.0976762 29.37109375 26.21875 C28.21819443 22.51300217 26.71315011 21.52228914 23.49609375 19.40625 C20.51430625 18.77264024 20.51430625 18.77264024 17.3203125 18.796875 C15.58491211 18.74853516 15.58491211 18.74853516 13.81445312 18.69921875 C12.61626953 18.68503906 11.41808594 18.67085937 10.18359375 18.65625 C8.96607422 18.62660156 7.74855469 18.59695312 6.49414062 18.56640625 C3.49472542 18.49583177 0.49608205 18.44307136 -2.50390625 18.40625 C-2.59478516 19.34597656 -2.59478516 19.34597656 -2.6875 20.3046875 C-2.77128906 21.12195313 -2.85507813 21.93921875 -2.94140625 22.78125 C-3.02261719 23.59335937 -3.10382813 24.40546875 -3.1875 25.2421875 C-3.50390625 27.40625 -3.50390625 27.40625 -4.50390625 29.40625 C-9.06062286 32.02981411 -12.53847713 31.44738836 -17.50390625 30.40625 C-19.59510451 28.84494813 -20.40190951 28.02187317 -20.83203125 25.42578125 C-20.74911543 23.08340921 -20.64489463 20.745895 -20.50390625 18.40625 C-20.50777344 17.71789062 -20.51164062 17.02953125 -20.515625 16.3203125 C-20.3129442 10.92260265 -18.03996426 8.0148808 -14.48828125 4.0703125 C-10.11764466 0.40517237 -5.51940577 0.06896448 0 0 Z " fill="#F26CA6" transform="translate(92.50390625,32.59375)"/>
<path d="M0 0 C5.77997948 -0.09967465 11.55944688 -0.17184583 17.34008789 -0.21972656 C19.30209074 -0.23970918 21.26403505 -0.26690484 23.22583008 -0.30175781 C47.08083902 -0.71462129 47.08083902 -0.71462129 57.4375 7.1875 C63.22153133 12.80525527 65.19914884 18.43673959 65.5 26.4375 C65.25338577 34.23781669 63.05327526 40.98607606 58 47 C55.8125 48 55.8125 48 53 49 C50.90815591 50.03787649 48.83797977 51.11165114 46.76953125 52.1953125 C45 53 45 53 43 53 C43 53.66 43 54.32 43 55 C43.99 55 44.98 55 46 55 C46.66 56.65 47.32 58.3 48 60 C47.29875 59.34 46.5975 58.68 45.875 58 C41.48635762 55.04311329 36.72989619 55.76881829 31.63671875 55.92578125 C26.6891912 56.0267512 21.91603133 55.53146285 17 55 C17 61.27 17 67.54 17 74 C25.25 74.33 33.5 74.66 42 75 C42 75.33 42 75.66 42 76 C33.09 76 24.18 76 15 76 C15 68.74 15 61.48 15 54 C18.57558831 53.28488234 21.38350655 52.86451946 24.94140625 52.7890625 C25.85470703 52.76070312 26.76800781 52.73234375 27.70898438 52.703125 C29.61503414 52.6509402 31.52131759 52.60669946 33.42773438 52.5703125 C34.79575195 52.52390625 34.79575195 52.52390625 36.19140625 52.4765625 C37.01842041 52.45674316 37.84543457 52.43692383 38.69750977 52.41650391 C41.53343057 51.90350625 42.91003635 50.96280338 45 49 C46.28008262 45.91222828 46.28008262 45.91222828 47 43 C49.31 43 51.62 43 54 43 C54.33 41.35 54.66 39.7 55 38 C54.0925 38.185625 53.185 38.37125 52.25 38.5625 C49 39 49 39 47 38.4375 C44.89852248 37.78406144 44.89852248 37.78406144 42.6015625 38.9375 C37.54313171 40.42979195 32.62397456 40.42765792 27.375 40.5625 C25.3201997 40.62255946 23.26550062 40.68621715 21.2109375 40.75390625 C20.30649902 40.77783447 19.40206055 40.8017627 18.47021484 40.82641602 C16.02839179 40.91487662 16.02839179 40.91487662 13.86181641 41.59741211 C10.75010439 42.27026985 8.67589304 40.50518983 6 39 C4.68 38.34 3.36 37.68 2 37 C1.34 54.82 0.68 72.64 0 91 C16.17 90.67 32.34 90.34 49 90 C46.60345408 92.39654592 45.94894648 92.28299814 42.66796875 92.4140625 C41.79342041 92.45289551 40.91887207 92.49172852 40.01782227 92.53173828 C38.61681274 92.57790283 38.61681274 92.57790283 37.1875 92.625 C36.23351318 92.66222168 35.27952637 92.69944336 34.29663086 92.73779297 C22.44444341 93.17345396 10.82529739 92.99282857 -1 92 C-2.30320993 88.03491705 -2.14770726 84.02223501 -2.14526367 79.8984375 C-2.14862228 79.08497864 -2.1519809 78.27151978 -2.15544128 77.43341064 C-2.16493232 74.74725819 -2.1668933 72.06116817 -2.16796875 69.375 C-2.171182 67.50699844 -2.17454612 65.63899713 -2.17805481 63.77099609 C-2.18404101 59.85709042 -2.18589517 55.94320681 -2.18530273 52.02929688 C-2.185201 47.01213864 -2.19886719 41.99512157 -2.21607494 36.97799683 C-2.22718672 33.12100574 -2.22922222 29.26404891 -2.22869301 25.40704346 C-2.22987383 23.55706291 -2.2343013 21.7070815 -2.24202538 19.8571167 C-2.25181109 17.27183084 -2.24895314 14.68685321 -2.24291992 12.1015625 C-2.24853943 11.33676575 -2.25415894 10.57196899 -2.25994873 9.78399658 C-2.2376926 6.03524091 -2.09718746 3.18076085 0 0 Z M17 18 C16.19184587 22.53573011 15.89398342 26.76224267 15.9375 31.375 C15.94652344 32.62023437 15.95554687 33.86546875 15.96484375 35.1484375 C15.97644531 36.08945313 15.98804687 37.03046875 16 38 C20.06236402 38.08729047 24.12448589 38.14048992 28.1875 38.1875 C29.33798828 38.21263672 30.48847656 38.23777344 31.67382812 38.26367188 C32.78564453 38.27333984 33.89746094 38.28300781 35.04296875 38.29296875 C36.57473755 38.31653442 36.57473755 38.31653442 38.13745117 38.34057617 C41.48707631 37.94204934 43.30316765 36.99829227 46 35 C48.4434877 31.33476845 48.84707648 28.26029643 48 24 C45.70800597 21.03949126 45.70800597 21.03949126 43 19 C42.67 18.67 42.34 18.34 42 18 C40.14630389 17.91262355 38.28932459 17.89301847 36.43359375 17.90234375 C35.30888672 17.90556641 34.18417969 17.90878906 33.02539062 17.91210938 C31.24938477 17.92467773 31.24938477 17.92467773 29.4375 17.9375 C28.24962891 17.94201172 27.06175781 17.94652344 25.83789062 17.95117188 C22.89187774 17.96300325 19.94596319 17.97948713 17 18 Z " fill="#3ACED4" transform="translate(6,37)"/>
<path d="M0 0 C0 0.99 0 1.98 0 3 C0.99 3 1.98 3 3 3 C3.60072501 10.08855515 3.60072501 10.08855515 1.1875 13.75 C-9.11949046 21.02552268 -20.795639 21.02113811 -33 20 C-34.32 19.67 -35.64 19.34 -37 19 C-37 31.21 -37 43.42 -37 56 C-46 57.125 -46 57.125 -50.5 56.5625 C-51.3559375 56.46066406 -52.211875 56.35882813 -53.09375 56.25390625 C-53.7228125 56.17011719 -54.351875 56.08632812 -55 56 C-55.04966586 50.85881945 -55.08584495 45.71778049 -55.10986328 40.57641602 C-55.11988268 38.82964645 -55.13350195 37.0828935 -55.15087891 35.33618164 C-55.17530669 32.81652715 -55.18652389 30.29709561 -55.1953125 27.77734375 C-55.20563507 27.00414291 -55.21595764 26.23094208 -55.22659302 25.43431091 C-55.2277927 19.55557055 -54.50536294 14.39742987 -51.3125 9.3125 C-42.7708517 0.7708517 -32.03231674 1.7613541 -20.67773438 1.48242188 C-19.11829102 1.43118164 -19.11829102 1.43118164 -17.52734375 1.37890625 C-16.58624756 1.3538501 -15.64515137 1.32879395 -14.67553711 1.30297852 C-11.95114842 1.11456501 -11.95114842 1.11456501 -9.39282227 -0.04711914 C-6.04403981 -1.38068693 -3.47229924 -0.68084299 0 0 Z " fill="#8353B3" transform="translate(127,73)"/>
<path d="M0 0 C0.66 1.32 1.32 2.64 2 4 C3.65614657 4.38218767 5.32457024 4.71395102 7 5 C8.8125 6.5625 8.8125 6.5625 10 8 C10.33 7.34 10.66 6.68 11 6 C11.66 6.66 12.32 7.32 13 8 C13.33 7.67 13.66 7.34 14 7 C15.68550544 6.86638484 17.37614991 6.79651052 19.06640625 6.75390625 C20.10990234 6.72103516 21.15339844 6.68816406 22.22851562 6.65429688 C24.42374363 6.59385416 26.61905869 6.53648264 28.81445312 6.48242188 C33.5329067 6.32928162 37.96120151 6.16324693 42.52734375 4.90234375 C46.03355813 3.99128017 46.74281993 4.10854889 50 5 C51.32 5 52.64 5 54 5 C54 6.65 54 8.3 54 10 C50.94736336 10.98120464 49.05263664 10.98120464 46 10 C45.95875 11.093125 45.9175 12.18625 45.875 13.3125 C45 17 45 17 42.57421875 18.69140625 C37.96195984 20.38004749 33.81242299 20.52514788 28.9375 20.625 C21.34806446 20.56629804 21.34806446 20.56629804 14 22 C12.19936609 23.81767416 12.19936609 23.81767416 10.8125 26.0625 C9.9183486 27.40490671 8.98944319 28.7262007 8 30 C7.34 30 6.68 30 6 30 C6 30.66 6 31.32 6 32 C4.02 32 2.04 32 0 32 C0 21.44 0 10.88 0 0 Z " fill="#17B5D4" transform="translate(7,70)"/>
<path d="M0 0 C0.74759079 0.0028299 1.49518158 0.00565979 2.26542664 0.00857544 C4.63935755 0.01971781 7.012903 0.04481088 9.38671875 0.0703125 C11.00194765 0.08035001 12.61718251 0.08947451 14.23242188 0.09765625 C18.17983469 0.11963761 22.12696149 0.15412593 26.07421875 0.1953125 C26.07421875 0.5253125 26.07421875 0.8553125 26.07421875 1.1953125 C15.18421875 1.1953125 4.29421875 1.1953125 -6.92578125 1.1953125 C-6.92578125 2.5153125 -6.92578125 3.8353125 -6.92578125 5.1953125 C-5.17586791 5.22246633 -3.4258318 5.24177801 -1.67578125 5.2578125 C-0.70125 5.26941406 0.27328125 5.28101563 1.27734375 5.29296875 C4.00146158 5.31065499 4.00146158 5.31065499 6.2421875 4.57421875 C8.07421875 4.1953125 8.07421875 4.1953125 11.13671875 6.0703125 C12.59078125 7.1221875 12.59078125 7.1221875 14.07421875 8.1953125 C15.06421875 8.5253125 16.05421875 8.8553125 17.07421875 9.1953125 C17.22890625 10.154375 17.22890625 10.154375 17.38671875 11.1328125 C17.61359375 11.8134375 17.84046875 12.4940625 18.07421875 13.1953125 C20.86523312 14.4039688 20.86523312 14.4039688 24.07421875 15.1953125 C25.7458507 15.84942935 27.41437077 16.51184568 29.07421875 17.1953125 C29.07421875 19.1753125 29.07421875 21.1553125 29.07421875 23.1953125 C28.00300781 22.22851562 28.00300781 22.22851562 26.91015625 21.2421875 C21.81855146 17.8477843 15.59769879 18.51560858 9.69921875 18.4453125 C8.48621094 18.41566406 7.27320312 18.38601562 6.0234375 18.35546875 C3.04029854 18.2850009 0.0579308 18.2321877 -2.92578125 18.1953125 C-3.01666016 19.13503906 -3.01666016 19.13503906 -3.109375 20.09375 C-3.19316406 20.91101563 -3.27695313 21.72828125 -3.36328125 22.5703125 C-3.44449219 23.38242187 -3.52570313 24.19453125 -3.609375 25.03125 C-3.92578125 27.1953125 -3.92578125 27.1953125 -4.92578125 29.1953125 C-9.48249786 31.81887661 -12.96035213 31.23645086 -17.92578125 30.1953125 C-20.01697951 28.63401063 -20.82378451 27.81093567 -21.25390625 25.21484375 C-21.17099043 22.87247171 -21.06676963 20.5349575 -20.92578125 18.1953125 C-20.92964844 17.50695312 -20.93351562 16.81859375 -20.9375 16.109375 C-20.7348192 10.71166515 -18.46183926 7.8039433 -14.91015625 3.859375 C-10.36683378 0.04942348 -5.71542443 -0.08218095 0 0 Z " fill="#DA63B2" transform="translate(92.92578125,32.8046875)"/>
<path d="M0 0 C2.64453125 0.26953125 2.64453125 0.26953125 4.4453125 1.6328125 C9.04233809 7.56024342 9.29558372 11.95247888 8.64453125 19.26953125 C8.60972656 20.31238281 8.57492188 21.35523438 8.5390625 22.4296875 C8.17519632 30.36590383 6.57910241 34.33496009 0.89453125 40.01953125 C-5.18224358 44.22652921 -11.63004904 44.5669293 -18.79296875 44.46484375 C-19.55851074 44.46201385 -20.32405273 44.45918396 -21.11279297 44.45626831 C-23.52718599 44.44518773 -25.94119029 44.42010726 -28.35546875 44.39453125 C-30.00520293 44.38448573 -31.65494299 44.37536265 -33.3046875 44.3671875 C-37.32176143 44.34528837 -41.33854948 44.3108445 -45.35546875 44.26953125 C-45.35546875 43.93953125 -45.35546875 43.60953125 -45.35546875 43.26953125 C-34.46546875 43.26953125 -23.57546875 43.26953125 -12.35546875 43.26953125 C-12.02546875 42.27953125 -11.69546875 41.28953125 -11.35546875 40.26953125 C-9.29296875 39.58203125 -9.29296875 39.58203125 -7.35546875 39.26953125 C-7.68546875 38.27953125 -8.01546875 37.28953125 -8.35546875 36.26953125 C-10.00546875 35.93953125 -11.65546875 35.60953125 -13.35546875 35.26953125 C-13.14921875 34.48578125 -12.94296875 33.70203125 -12.73046875 32.89453125 C-12.54484375 31.59515625 -12.54484375 31.59515625 -12.35546875 30.26953125 C-13.01546875 29.60953125 -13.67546875 28.94953125 -14.35546875 28.26953125 C-13.73671875 28.06328125 -13.11796875 27.85703125 -12.48046875 27.64453125 C-10.14491274 26.38431298 -10.14491274 26.38431298 -9.04296875 23.70703125 C-7.97171313 18.35075315 -8.63564495 13.42900266 -10.35546875 8.26953125 C-11.34546875 8.26953125 -12.33546875 8.26953125 -13.35546875 8.26953125 C-13.35546875 7.60953125 -13.35546875 6.94953125 -13.35546875 6.26953125 C-12.64519531 5.92019531 -11.93492188 5.57085937 -11.203125 5.2109375 C-10.28402344 4.75589844 -9.36492188 4.30085938 -8.41796875 3.83203125 C-7.50144531 3.37957031 -6.58492187 2.92710938 -5.640625 2.4609375 C-1.1792932 0.134944 -1.1792932 0.134944 0 0 Z " fill="#2597BD" transform="translate(62.35546875,83.73046875)"/>
<path d="M0 0 C4.75 0.875 4.75 0.875 7 2 C7 1.34 7 0.68 7 0 C10 1 10 1 11.3125 3.25 C12.1459454 6.5837816 11.54409789 7.99758744 10 11 C10.33 11.33 10.66 11.66 11 12 C11.08843793 14.44830426 11.11528752 16.86820599 11.09765625 19.31640625 C11.0962413 20.04746078 11.09482635 20.77851532 11.09336853 21.53172302 C11.08775408 23.87535632 11.07519922 26.21889539 11.0625 28.5625 C11.05748686 30.14778508 11.05292363 31.73307166 11.04882812 33.31835938 C11.03862921 37.21230543 11.01905687 41.10604677 11 45 C6.05 45 1.1 45 -4 45 C-4.02302629 40.41009267 -4.04291866 35.82038794 -4.05493164 31.23046875 C-4.05994272 29.67089151 -4.06675337 28.11131892 -4.07543945 26.55175781 C-4.08764686 24.30272264 -4.09326068 22.0537499 -4.09765625 19.8046875 C-4.10281754 19.1138205 -4.10797882 18.42295349 -4.11329651 17.71115112 C-4.11375529 13.70084945 -3.7735266 9.93454705 -3 6 C-2.34 6 -1.68 6 -1 6 C-1.33 5.01 -1.66 4.02 -2 3 C-1.34 2.01 -0.68 1.02 0 0 Z " fill="#4657AE" transform="translate(77,83)"/>
<path d="M0 0 C5.77997948 -0.09967465 11.55944688 -0.17184583 17.34008789 -0.21972656 C19.30209074 -0.23970918 21.26403505 -0.26690484 23.22583008 -0.30175781 C47.08083902 -0.71462129 47.08083902 -0.71462129 57.4375 7.1875 C63.22153133 12.80525527 65.19914884 18.43673959 65.5 26.4375 C65.30947245 32.44970257 64.14425016 37.8156678 61 43 C60.01 43.66 59.02 44.32 58 45 C59.875 40.25 59.875 40.25 61 38 C61.23274209 35.12089412 61.41972757 32.25853505 61.5625 29.375 C61.62727539 28.17230469 61.62727539 28.17230469 61.69335938 26.9453125 C61.79951457 24.9637489 61.90026855 22.98189729 62 21 C61.34 21 60.68 21 60 21 C60 20.34 60 19.68 60 19 C59.34 19 58.68 19 58 19 C56.50178941 15.62902617 56 13.79557881 56 10 C53.69 10.33 51.38 10.66 49 11 C49 10.34 49 9.68 49 9 C49.66 8.67 50.32 8.34 51 8 C51 7.34 51 6.68 51 6 C49.68 6.33 48.36 6.66 47 7 C47 7.66 47 8.32 47 9 C45.68 9.33 44.36 9.66 43 10 C42.505 8.515 42.505 8.515 42 7 C38.98731112 5.95513629 38.98731112 5.95513629 35.375 5.3125 C34.16585937 5.06113281 32.95671875 4.80976562 31.7109375 4.55078125 C26.22092576 3.73594793 21.40069652 3.86301126 16 5 C11.88058984 5.3168777 8.87164707 4.37120834 5 3 C3.35 2.67 1.7 2.34 0 2 C0 31.37 0 60.74 0 91 C16.17 90.67 32.34 90.34 49 90 C46.60345408 92.39654592 45.94894648 92.28299814 42.66796875 92.4140625 C41.79342041 92.45289551 40.91887207 92.49172852 40.01782227 92.53173828 C38.61681274 92.57790283 38.61681274 92.57790283 37.1875 92.625 C36.23351318 92.66222168 35.27952637 92.69944336 34.29663086 92.73779297 C22.44444341 93.17345396 10.82529739 92.99282857 -1 92 C-2.30320993 88.03491705 -2.14770726 84.02223501 -2.14526367 79.8984375 C-2.14862228 79.08497864 -2.1519809 78.27151978 -2.15544128 77.43341064 C-2.16493232 74.74725819 -2.1668933 72.06116817 -2.16796875 69.375 C-2.171182 67.50699844 -2.17454612 65.63899713 -2.17805481 63.77099609 C-2.18404101 59.85709042 -2.18589517 55.94320681 -2.18530273 52.02929688 C-2.185201 47.01213864 -2.19886719 41.99512157 -2.21607494 36.97799683 C-2.22718672 33.12100574 -2.22922222 29.26404891 -2.22869301 25.40704346 C-2.22987383 23.55706291 -2.2343013 21.7070815 -2.24202538 19.8571167 C-2.25181109 17.27183084 -2.24895314 14.68685321 -2.24291992 12.1015625 C-2.24853943 11.33676575 -2.25415894 10.57196899 -2.25994873 9.78399658 C-2.2376926 6.03524091 -2.09718746 3.18076085 0 0 Z " fill="#99DDDF" transform="translate(6,37)"/>
<path d="M0 0 C4.03321763 1.21934486 7.54269479 2.55954927 11 5 C11 5.66 11 6.32 11 7 C11.66 7 12.32 7 13 7 C13 7.66 13 8.32 13 9 C13.66 9 14.32 9 15 9 C19.78743323 16.97905539 22.04608054 23.57282179 21 33 C19.62425394 38.06819657 17.91693318 42.62460023 15 47 C14.34 47 13.68 47 13 47 C12.34 48.32 11.68 49.64 11 51 C10.34 50.67 9.68 50.34 9 50 C9.33 47.36 9.66 44.72 10 42 C8.02 42.495 8.02 42.495 6 43 C6 42.01 6 41.02 6 40 C4.68 40 3.36 40 2 40 C2 39.34 2 38.68 2 38 C0.515 38.495 0.515 38.495 -1 39 C-0.690625 38.484375 -0.38125 37.96875 -0.0625 37.4375 C2.0813591 32.519235 2.12918861 27.29673301 2 22 C2.99 22.66 3.98 23.32 5 24 C4.67 24.66 4.34 25.32 4 26 C4.66 26 5.32 26 6 26 C6 26.99 6 27.98 6 29 C7.32 28.34 8.64 27.68 10 27 C10.33 28.32 10.66 29.64 11 31 C11.61875 31.0825 12.2375 31.165 12.875 31.25 C15 32 15 32 16.25 34.0625 C16.4975 34.701875 16.745 35.34125 17 36 C18.58272601 34.41727399 18.34735747 32.61965997 18.5625 30.4375 C18.68818359 29.19806641 18.68818359 29.19806641 18.81640625 27.93359375 C18.90728516 26.97646484 18.90728516 26.97646484 19 26 C18.34 26.99 17.68 27.98 17 29 C16.44570312 28.37351562 15.89140625 27.74703125 15.3203125 27.1015625 C14.23363281 25.87566406 14.23363281 25.87566406 13.125 24.625 C12.40570313 23.81289063 11.68640625 23.00078125 10.9453125 22.1640625 C9.66704062 20.74204921 8.35205414 19.35205414 7 18 C7.33 17.01 7.66 16.02 8 15 C8.99 14.67 9.98 14.34 11 14 C11.66 14.33 12.32 14.66 13 15 C13 13.35 13 11.7 13 10 C11.68 10.33 10.36 10.66 9 11 C8.34 10.01 7.68 9.02 7 8 C3.44327821 6.7811879 3.44327821 6.7811879 0 6 C0.33 5.01 0.66 4.02 1 3 C0.67 2.01 0.34 1.02 0 0 Z " fill="#DB5EA9" transform="translate(120,34)"/>
<path d="M0 0 C0.08126109 2.72977064 0.14061663 5.4571017 0.1875 8.1875 C0.21263672 8.95642578 0.23777344 9.72535156 0.26367188 10.51757812 C0.32493208 15.2754538 -0.12084942 18.02721858 -3 22 C-3.185625 23.0828125 -3.185625 23.0828125 -3.375 24.1875 C-3.58125 24.785625 -3.7875 25.38375 -4 26 C-6.0625 27 -6.0625 27 -9 28 C-11.09362857 29.03478194 -13.16183732 30.11155531 -15.23046875 31.1953125 C-17 32 -17 32 -19 32 C-19 32.66 -19 33.32 -19 34 C-18.01 34 -17.02 34 -16 34 C-15.34 35.65 -14.68 37.3 -14 39 C-14.70125 38.34 -15.4025 37.68 -16.125 37 C-20.51364238 34.04311329 -25.27010381 34.76881829 -30.36328125 34.92578125 C-35.3108088 35.0267512 -40.08396867 34.53146285 -45 34 C-45 40.27 -45 46.54 -45 53 C-36.75 53.33 -28.5 53.66 -20 54 C-20 54.33 -20 54.66 -20 55 C-28.91 55 -37.82 55 -47 55 C-47 47.74 -47 40.48 -47 33 C-43.42441169 32.28488234 -40.61649345 31.86451946 -37.05859375 31.7890625 C-36.14529297 31.76070312 -35.23199219 31.73234375 -34.29101562 31.703125 C-32.38496586 31.6509402 -30.47868241 31.60669946 -28.57226562 31.5703125 C-27.20424805 31.52390625 -27.20424805 31.52390625 -25.80859375 31.4765625 C-24.56807251 31.4468335 -24.56807251 31.4468335 -23.30249023 31.41650391 C-20.46656943 30.90350625 -19.08996365 29.96280338 -17 28 C-15.71991738 24.91222828 -15.71991738 24.91222828 -15 22 C-12.69 22 -10.38 22 -8 22 C-7.67 20.35 -7.34 18.7 -7 17 C-7.9075 17.226875 -8.815 17.45375 -9.75 17.6875 C-13 18 -13 18 -15.375 16.5625 C-15.91125 16.046875 -16.4475 15.53125 -17 15 C-16.34 15 -15.68 15 -15 15 C-12.91620491 11.15299368 -11.50313376 7.09945571 -10 3 C-9.401875 3.165 -8.80375 3.33 -8.1875 3.5 C-5.88655664 4.1114124 -5.88655664 4.1114124 -3 4 C-3 3.01 -3 2.02 -3 1 C-1 0 -1 0 0 0 Z " fill="#2FB9C8" transform="translate(68,58)"/>
<path d="M0 0 C0.12375 0.928125 0.12375 0.928125 0.25 1.875 C0.81258459 4.18437567 0.81258459 4.18437567 3.0625 5.25 C3.701875 5.4975 4.34125 5.745 5 6 C4.67 6.99 4.34 7.98 4 9 C4.99 9.33 5.98 9.66 7 10 C7 10.66 7 11.32 7 12 C5.02 12 3.04 12 1 12 C1 12.66 1 13.32 1 14 C-0.91408757 14.24979445 -2.83151611 14.47408014 -4.75 14.6875 C-5.81734375 14.81511719 -6.8846875 14.94273438 -7.984375 15.07421875 C-11.45468025 14.98880968 -12.5335606 14.35993407 -15 12 C-18 8.57142857 -18 8.57142857 -18 5 C-18.66 4.34 -19.32 3.68 -20 3 C-13.53081846 0.51185325 -6.90607344 -0.22277656 0 0 Z " fill="#9454B5" transform="translate(117,76)"/>
<path d="M0 0 C0 0.99 0 1.98 0 3 C0.99 3 1.98 3 3 3 C3.60072501 10.08855515 3.60072501 10.08855515 1.1875 13.75 C-8.77213021 20.78032721 -21.10246916 21.63393672 -33 20 C-34.32 19.34 -35.64 18.68 -37 18 C-27.76 17.67 -18.52 17.34 -9 17 C-9 16.34 -9 15.68 -9 15 C-7.02 15 -5.04 15 -3 15 C-3.66 14.21625 -4.32 13.4325 -5 12.625 C-7 10 -7 10 -7 8 C-7.99 8 -8.98 8 -10 8 C-10 6.35 -10 4.7 -10 3 C-10.70213623 3.15847412 -11.40427246 3.31694824 -12.12768555 3.48022461 C-15.10447541 4.01890592 -17.93483803 4.20791726 -20.95703125 4.31640625 C-22.06884766 4.35830078 -23.18066406 4.40019531 -24.32617188 4.44335938 C-25.47666016 4.48267578 -26.62714844 4.52199219 -27.8125 4.5625 C-28.98232422 4.60568359 -30.15214844 4.64886719 -31.35742188 4.69335938 C-34.23817031 4.79918279 -37.11900123 4.90126825 -40 5 C-40.33 5.66 -40.66 6.32 -41 7 C-42.98 7 -44.96 7 -47 7 C-44.29391199 3.27912898 -40.29043881 2.72735089 -36 2 C-30.86725772 1.59943472 -25.7257368 1.53930517 -20.58007812 1.43359375 C-19.54947266 1.40394531 -18.51886719 1.37429687 -17.45703125 1.34375 C-16.52866455 1.32505859 -15.60029785 1.30636719 -14.64379883 1.28710938 C-11.94659736 1.11466082 -11.94659736 1.11466082 -9.3972168 -0.04492188 C-6.04570381 -1.38020233 -3.47548714 -0.68146807 0 0 Z " fill="#C490C8" transform="translate(127,73)"/>
<path d="M0 0 C4.75 0.875 4.75 0.875 7 2 C7 1.34 7 0.68 7 0 C10 1 10 1 11.3125 3.25 C12.1459454 6.5837816 11.54409789 7.99758744 10 11 C10.33 11.33 10.66 11.66 11 12 C11.07226502 13.85287502 11.0838122 15.70833878 11.0625 17.5625 C11.05347656 18.57441406 11.04445313 19.58632812 11.03515625 20.62890625 C11.02355469 21.41136719 11.01195313 22.19382812 11 23 C9 22 9 22 8 21 C3.90381539 17.84992677 3.90381539 17.84992677 -1 17 C-2.80230168 13.17010894 -3.19622241 10.21878192 -3 6 C-2.34 6 -1.68 6 -1 6 C-1.33 5.01 -1.66 4.02 -2 3 C-1.34 2.01 -0.68 1.02 0 0 Z " fill="#6254AF" transform="translate(77,83)"/>
<path d="M0 0 C2.875 1.5 2.875 1.5 5 4 C5.74428485 7.48971293 5.67079522 10.70033427 4 13.9375 C0.85884065 15.6062409 -2.46384252 15.9714826 -6 16 C-9 15 -9 15 -11 12 C-11.52732332 8.93597398 -11.55311365 6.0620828 -11 3 C-7.6957024 -0.20711237 -4.48319609 -0.65379943 0 0 Z " fill="#3AE0DE" transform="translate(33,4)"/>
<path d="M0 0 C4.03321763 1.21934486 7.54269479 2.55954927 11 5 C11 5.66 11 6.32 11 7 C11.66 7 12.32 7 13 7 C13 7.66 13 8.32 13 9 C13.66 9 14.32 9 15 9 C19.80776421 17.01294035 21.92045283 23.54201366 21 33 C20.2250527 35.85341868 19.2253148 38.29409648 18 41 C16.49583452 37.99166904 17.39160263 35.65038422 17.9375 32.375 C18.13214844 31.18648437 18.32679688 29.99796875 18.52734375 28.7734375 C18.68332031 27.85820313 18.83929688 26.94296875 19 26 C18.34 26.99 17.68 27.98 17 29 C16.44570312 28.37351562 15.89140625 27.74703125 15.3203125 27.1015625 C14.23363281 25.87566406 14.23363281 25.87566406 13.125 24.625 C12.40570313 23.81289063 11.68640625 23.00078125 10.9453125 22.1640625 C9.66704062 20.74204921 8.35205414 19.35205414 7 18 C7.33 17.01 7.66 16.02 8 15 C8.99 14.67 9.98 14.34 11 14 C11.66 14.33 12.32 14.66 13 15 C13 13.35 13 11.7 13 10 C11.68 10.33 10.36 10.66 9 11 C8.34 10.01 7.68 9.02 7 8 C3.44327821 6.7811879 3.44327821 6.7811879 0 6 C0.33 5.01 0.66 4.02 1 3 C0.67 2.01 0.34 1.02 0 0 Z " fill="#ED8BB4" transform="translate(120,34)"/>
<path d="M0 0 C2.4375 1.5625 2.4375 1.5625 4 4 C4.56288002 7.94016013 4.60396028 10.05782196 2.4375 13.4375 C-0.91852406 15.58879747 -3.08421671 15.48947291 -7 15 C-9.375 13.875 -9.375 13.875 -11 12 C-12.19308162 8.34121638 -12.32667744 6.70002308 -10.6875 3.1875 C-7.66275934 -0.73346012 -4.76575755 -0.41084117 0 0 Z " fill="#36C5CC" transform="translate(47,15)"/>
<path d="M0 0 C2.97 0 5.94 0 9 0 C8.01431932 3.54845044 7.11099465 4.91120428 4.1875 7.25 C1.30805148 8.8308737 -0.77097852 9.62011512 -4 10 C-4 10.66 -4 11.32 -4 12 C-3.01 12 -2.02 12 -1 12 C-0.34 13.65 0.32 15.3 1 17 C0.29875 16.34 -0.4025 15.68 -1.125 15 C-5.51364238 12.04311329 -10.27010381 12.76881829 -15.36328125 12.92578125 C-20.3108088 13.0267512 -25.08396867 12.53146285 -30 12 C-30 18.27 -30 24.54 -30 31 C-21.75 31.33 -13.5 31.66 -5 32 C-5 32.33 -5 32.66 -5 33 C-13.91 33 -22.82 33 -32 33 C-32 25.74 -32 18.48 -32 11 C-28.42441169 10.28488234 -25.61649345 9.86451946 -22.05859375 9.7890625 C-21.14529297 9.76070312 -20.23199219 9.73234375 -19.29101562 9.703125 C-17.38496586 9.6509402 -15.47868241 9.60669946 -13.57226562 9.5703125 C-12.20424805 9.52390625 -12.20424805 9.52390625 -10.80859375 9.4765625 C-9.98157959 9.45674316 -9.15456543 9.43692383 -8.30249023 9.41650391 C-5.46656943 8.90350625 -4.08996365 7.96280338 -2 6 C-0.71991738 2.91222828 -0.71991738 2.91222828 0 0 Z " fill="#74C5D9" transform="translate(53,80)"/>
<path d="M0 0 C0.69480469 0.31582031 1.38960937 0.63164063 2.10546875 0.95703125 C4.27984484 2.52437329 4.2427701 3.64681259 4.8125 6.1875 C7.60351437 7.3961563 7.60351437 7.3961563 10.8125 8.1875 C12.48413195 8.84161685 14.15265202 9.50403318 15.8125 10.1875 C15.8125 12.1675 15.8125 14.1475 15.8125 16.1875 C15.09835938 15.54296875 14.38421875 14.8984375 13.6484375 14.234375 C8.55683271 10.8399718 2.33598004 11.50779608 -3.5625 11.4375 C-4.77550781 11.40785156 -5.98851563 11.37820312 -7.23828125 11.34765625 C-10.22142021 11.2771884 -13.20378795 11.2243752 -16.1875 11.1875 C-16.1875 10.5275 -16.1875 9.8675 -16.1875 9.1875 C-11.2375 8.8575 -6.2875 8.5275 -1.1875 8.1875 C-2.1775 7.5275 -3.1675 6.8675 -4.1875 6.1875 C-5.1775 5.5275 -6.1675 4.8675 -7.1875 4.1875 C-8.5075 4.1875 -9.8275 4.1875 -11.1875 4.1875 C-12.1775 3.8575 -13.1675 3.5275 -14.1875 3.1875 C-13.8575 1.5375 -13.5275 -0.1125 -13.1875 -1.8125 C-7.98014253 -3.11433937 -4.78446369 -2.25309641 0 0 Z " fill="#E887BF" transform="translate(106.1875,39.8125)"/>
<path d="M0 0 C0.74759079 0.0028299 1.49518158 0.00565979 2.26542664 0.00857544 C4.63935755 0.01971781 7.012903 0.04481088 9.38671875 0.0703125 C11.00194765 0.08035001 12.61718251 0.08947451 14.23242188 0.09765625 C18.17983469 0.11963761 22.12696149 0.15412593 26.07421875 0.1953125 C26.07421875 0.5253125 26.07421875 0.8553125 26.07421875 1.1953125 C24.6061377 1.23289673 24.6061377 1.23289673 23.10839844 1.27124023 C19.47041171 1.36555233 15.83260532 1.46571453 12.19482422 1.56762695 C10.62162501 1.61088588 9.04838158 1.65256724 7.47509766 1.69262695 C5.2111276 1.75054912 2.94737824 1.81417964 0.68359375 1.87890625 C-0.01759583 1.89561874 -0.7187854 1.91233124 -1.44122314 1.92955017 C-6.27413989 2.03533675 -6.27413989 2.03533675 -10.92578125 3.1953125 C-12.10908308 5.06176156 -12.10908308 5.06176156 -12.92578125 7.1953125 C-14.92578125 10.1953125 -14.92578125 10.1953125 -17.92578125 11.1953125 C-17.92578125 15.4853125 -17.92578125 19.7753125 -17.92578125 24.1953125 C-16.93578125 24.1953125 -15.94578125 24.1953125 -14.92578125 24.1953125 C-14.26578125 25.5153125 -13.60578125 26.8353125 -12.92578125 28.1953125 C-10.9504138 27.84744542 -10.9504138 27.84744542 -8.92578125 27.1953125 C-8.59578125 26.5353125 -8.26578125 25.8753125 -7.92578125 25.1953125 C-6.93578125 25.5253125 -5.94578125 25.8553125 -4.92578125 26.1953125 C-4.92578125 23.8853125 -4.92578125 21.5753125 -4.92578125 19.1953125 C-4.26578125 18.8653125 -3.60578125 18.5353125 -2.92578125 18.1953125 C-3.06685872 19.65411359 -3.2138054 21.11234801 -3.36328125 22.5703125 C-3.44449219 23.38242187 -3.52570313 24.19453125 -3.609375 25.03125 C-3.92578125 27.1953125 -3.92578125 27.1953125 -4.92578125 29.1953125 C-9.48249786 31.81887661 -12.96035213 31.23645086 -17.92578125 30.1953125 C-20.01697951 28.63401063 -20.82378451 27.81093567 -21.25390625 25.21484375 C-21.17099043 22.87247171 -21.06676963 20.5349575 -20.92578125 18.1953125 C-20.92964844 17.50695312 -20.93351562 16.81859375 -20.9375 16.109375 C-20.7348192 10.71166515 -18.46183926 7.8039433 -14.91015625 3.859375 C-10.36683378 0.04942348 -5.71542443 -0.08218095 0 0 Z " fill="#D4B3D4" transform="translate(92.92578125,32.8046875)"/>
<path d="M0 0 C0.70381157 1.98723268 1.3711811 3.98777953 2 6 C2.66 6.33 3.32 6.66 4 7 C4 8.98 4 10.96 4 13 C3.01 13 2.02 13 1 13 C1.33 13.99 1.66 14.98 2 16 C-0.375 16.125 -0.375 16.125 -3 16 C-3.66 15.34 -4.32 14.68 -5 14 C-6.32 13.67 -7.64 13.34 -9 13 C-9 9.04 -9 5.08 -9 1 C-3.375 -1.125 -3.375 -1.125 0 0 Z " fill="#C45EB7" transform="translate(83,45)"/>
<path d="M0 0 C1 3 1 3 1 5 C0.34 5 -0.32 5 -1 5 C-1.33 17.87 -1.66 30.74 -2 44 C2.95 44 7.9 44 13 44 C13 32.45 13 20.9 13 9 C13.66 8.67 14.32 8.34 15 8 C15 20.21 15 32.42 15 45 C6 46.125 6 46.125 1.5 45.5625 C0.6440625 45.46066406 -0.211875 45.35882813 -1.09375 45.25390625 C-1.7228125 45.17011719 -2.351875 45.08632812 -3 45 C-3.04966586 39.85881945 -3.08584495 34.71778049 -3.10986328 29.57641602 C-3.11988268 27.82964645 -3.13350195 26.0828935 -3.15087891 24.33618164 C-3.17530669 21.81652715 -3.18652389 19.29709561 -3.1953125 16.77734375 C-3.20563507 16.00414291 -3.21595764 15.23094208 -3.22659302 14.43431091 C-3.22758371 9.57967505 -2.60115886 5.59467833 -1 1 C-0.67 0.67 -0.34 0.34 0 0 Z " fill="#CFD0E0" transform="translate(75,84)"/>
<path d="M0 0 C3.26460973 1.80412643 4.88929795 2.83394693 7 6 C9.53774984 8.09245003 9.53774984 8.09245003 11 8 C11.66 8 12.32 8 13 8 C13.08096803 9.45742463 13.13917774 10.91612807 13.1875 12.375 C13.23970703 13.59316406 13.23970703 13.59316406 13.29296875 14.8359375 C13.19628906 15.55007812 13.09960938 16.26421875 13 17 C12.01 17.66 11.02 18.32 10 19 C7 15.25 7 15.25 7 13 C6.34 13 5.68 13 5 13 C4.34 12.01 3.68 11.02 3 10 C2.01 10.33 1.02 10.66 0 11 C0 10.01 0 9.02 0 8 C-0.66 8 -1.32 8 -2 8 C-3.20628008 5.66785852 -4.1654738 3.50357861 -5 1 C-2.525 1.495 -2.525 1.495 0 2 C0 1.34 0 0.68 0 0 Z " fill="#E663A5" transform="translate(126,52)"/>
<path d="M0 0 C0.66 0 1.32 0 2 0 C2.66 1.65 3.32 3.3 4 5 C4.99 4.67 5.98 4.34 7 4 C8.33333333 5.33333333 9.66666667 6.66666667 11 8 C11.99 8 12.98 8 14 8 C14.96070434 10.88211302 15.10581883 12.69850044 15.0625 15.6875 C15.05347656 16.49574219 15.04445313 17.30398437 15.03515625 18.13671875 C15.02355469 18.75160156 15.01195313 19.36648437 15 20 C13 17 13 17 13 15 C11.35 14.67 9.7 14.34 8 14 C7.67 12.68 7.34 11.36 7 10 C6.01 10.495 6.01 10.495 5 11 C4.01 10.34 3.02 9.68 2 9 C2 16.92 2 24.84 2 33 C1.34 33 0.68 33 0 33 C0 22.11 0 11.22 0 0 Z " fill="#595AAD" transform="translate(73,95)"/>
<path d="M0 0 C4.01647107 3.7840364 6.75463328 7.13202511 7.23828125 12.78515625 C7.40569044 20.17759381 6.90944566 26.55399093 3 33 C2.01 33.66 1.02 34.32 0 35 C1.875 30.25 1.875 30.25 3 28 C3.23274209 25.12089412 3.41972757 22.25853505 3.5625 19.375 C3.60568359 18.57320312 3.64886719 17.77140625 3.69335938 16.9453125 C3.79951457 14.9637489 3.90026855 12.98189729 4 11 C3.34 11 2.68 11 2 11 C2 10.34 2 9.68 2 9 C1.34 9 0.68 9 0 9 C-1.49821059 5.62902617 -2 3.79557881 -2 0 C-4.31 0.33 -6.62 0.66 -9 1 C-9 0.34 -9 -0.32 -9 -1 C-5.05627547 -2.31457484 -3.74701691 -1.76330208 0 0 Z " fill="#71D0D2" transform="translate(64,47)"/>
<path d="M0 0 C4.75 0.875 4.75 0.875 7 2 C7 1.34 7 0.68 7 0 C10 1 10 1 11.3125 3.25 C12.1459454 6.5837816 11.54409789 7.99758744 10 11 C10.33 11.33 10.66 11.66 11 12 C11.04063832 13.66617115 11.042721 15.33388095 11 17 C10.34 17 9.68 17 9 17 C8.67 15.02 8.34 13.04 8 11 C7.34 11 6.68 11 6 11 C5.34 9.68 4.68 8.36 4 7 C2.68 7 1.36 7 0 7 C-0.33 7.66 -0.66 8.32 -1 9 C-1.80967438 6.08517222 -2.21845993 4.53886783 -1.0625 1.6875 C-0.711875 1.130625 -0.36125 0.57375 0 0 Z " fill="#6E54B5" transform="translate(77,83)"/>
<path d="M0 0 C2.31 0.33 4.62 0.66 7 1 C7.495 2.485 7.495 2.485 8 4 C3.67685659 9.36666078 -1.27642264 11.64503071 -8 13 C-25.14385475 14.42807263 -25.14385475 14.42807263 -32 11 C-22.76 10.67 -13.52 10.34 -4 10 C-4 9.34 -4 8.68 -4 8 C-2.02 8 -0.04 8 2 8 C0.68 6.35 -0.64 4.7 -2 3 C-1.34 2.67 -0.68 2.34 0 2 C0 1.34 0 0.68 0 0 Z " fill="#CC99CA" transform="translate(122,80)"/>
<path d="M0 0 C0.33 0.66 0.66 1.32 1 2 C3.31 2 5.62 2 8 2 C8.33 2.66 8.66 3.32 9 4 C7.68 4 6.36 4 5 4 C5 4.66 5 5.32 5 6 C8.3 6.66 11.6 7.32 15 8 C15 8.33 15 8.66 15 9 C13.02 9 11.04 9 9 9 C8.34 12.3 7.68 15.6 7 19 C6.01 18.67 5.02 18.34 4 18 C4.66 18 5.32 18 6 18 C6 16.02 6 14.04 6 12 C5.01 11.67 4.02 11.34 3 11 C1.8125 7.9375 1.8125 7.9375 1 5 C-1.31 5.66 -3.62 6.32 -6 7 C-6 5.68 -6 4.36 -6 3 C-5.01 3 -4.02 3 -3 3 C-2.67 2.34 -2.34 1.68 -2 1 C-1.34 0.67 -0.68 0.34 0 0 Z " fill="#CE64B6" transform="translate(81,40)"/>
<path d="M0 0 C1.32 0 2.64 0 4 0 C6.41847197 2.50484597 7 3.46013806 7 7 C6.01 7 5.02 7 4 7 C3.67 8.32 3.34 9.64 3 11 C2.67 10.34 2.34 9.68 2 9 C0.34608154 8.60828247 -1.32345271 8.27942455 -3 8 C-3.99 7.67 -4.98 7.34 -6 7 C-6 7.66 -6 8.32 -6 9 C-7.65 8.67 -9.3 8.34 -11 8 C-11 7.34 -11 6.68 -11 6 C-10.28972656 5.65066406 -9.57945313 5.30132812 -8.84765625 4.94140625 C-7.92855469 4.48636719 -7.00945313 4.03132813 -6.0625 3.5625 C-4.68771484 2.88380859 -4.68771484 2.88380859 -3.28515625 2.19140625 C-1.09471096 1.19474606 -1.09471096 1.19474606 0 0 Z " fill="#138BB1" transform="translate(60,84)"/>
<path d="M0 0 C1.65 0 3.3 0 5 0 C5.0825 0.61875 5.165 1.2375 5.25 1.875 C5.81258459 4.18437567 5.81258459 4.18437567 8.0625 5.25 C8.701875 5.4975 9.34125 5.745 10 6 C9.67 6.99 9.34 7.98 9 9 C9.99 9.33 10.98 9.66 12 10 C12 10.66 12 11.32 12 12 C8.7 12.33 5.4 12.66 2 13 C2 11.35 2 9.7 2 8 C0.68 7.34 -0.64 6.68 -2 6 C-2 5.01 -2 4.02 -2 3 C-1.01 2.67 -0.02 2.34 1 2 C0.67 1.34 0.34 0.68 0 0 Z " fill="#A855B6" transform="translate(112,76)"/>
<path d="M0 0 C1.65 0.33 3.3 0.66 5 1 C5.144375 2.03125 5.28875 3.0625 5.4375 4.125 C5.91660457 7.42549813 6.43875083 10.71268341 7 14 C5.68 13.67 4.36 13.34 3 13 C3 12.01 3 11.02 3 10 C1.68 10.33 0.36 10.66 -1 11 C-1 10.01 -1 9.02 -1 8 C-2.32 8 -3.64 8 -5 8 C-5.33 7.01 -5.66 6.02 -6 5 C-5.38125 4.731875 -4.7625 4.46375 -4.125 4.1875 C-1.7004767 3.04443152 -1.7004767 3.04443152 0 0 Z " fill="#D05BAE" transform="translate(127,66)"/>
<path d="M0 0 C1.32 0.33 2.64 0.66 4 1 C2.50548625 5.03518713 -0.3046913 7.90266263 -4 10 C-9.63075578 11.65767739 -14.59014384 12.27864871 -20.4375 12.1953125 C-21.20304199 12.1924826 -21.96858398 12.18965271 -22.75732422 12.18673706 C-25.17171724 12.17565648 -27.58572154 12.15057601 -30 12.125 C-31.64973418 12.11495448 -33.29947424 12.1058314 -34.94921875 12.09765625 C-38.96629268 12.07575712 -42.98308073 12.04131325 -47 12 C-47 11.67 -47 11.34 -47 11 C-36.11 11 -25.22 11 -14 11 C-13.67 10.01 -13.34 9.02 -13 8 C-9.7 8 -6.4 8 -3 8 C-3 7.34 -3 6.68 -3 6 C-3.66 5.67 -4.32 5.34 -5 5 C-3.35 4.67 -1.7 4.34 0 4 C0 2.68 0 1.36 0 0 Z " fill="#2092BE" transform="translate(64,116)"/>
<path d="M0 0 C6.25 -0.48076923 6.25 -0.48076923 9.4375 1.5625 C11.60396028 4.94217804 11.56288002 7.05983987 11 11 C9.4375 13.4375 9.4375 13.4375 7 15 C3.34026746 15.45746657 0.97395179 15.46134558 -2.375 13.875 C-4.59165449 11.31732174 -4.85778002 9.3421695 -5 6 C-4.34 5.34 -3.68 4.68 -3 4 C-2.67 6.31 -2.34 8.62 -2 11 C0.475 11.99 0.475 11.99 3 13 C3.268125 12.195625 3.53625 11.39125 3.8125 10.5625 C4.204375 9.716875 4.59625 8.87125 5 8 C5.99 7.67 6.98 7.34 8 7 C8.33 7.99 8.66 8.98 9 10 C9.41780879 7.62694422 9.41780879 7.62694422 9 5 C6.7667506 3.20968895 6.7667506 3.20968895 4 2 C3.236875 1.608125 2.47375 1.21625 1.6875 0.8125 C1.130625 0.544375 0.57375 0.27625 0 0 Z " fill="#97DADF" transform="translate(40,15)"/>
<path d="M0 0 C1.98 0.99 1.98 0.99 4 2 C4 2.66 4 3.32 4 4 C4.99 3.67 5.98 3.34 7 3 C7.98120464 6.05263664 7.98120464 7.94736336 7 11 C8.65 11.33 10.3 11.66 12 12 C12 12.33 12 12.66 12 13 C10.37509046 13.02698189 8.75005367 13.04638757 7.125 13.0625 C5.76761719 13.07990234 5.76761719 13.07990234 4.3828125 13.09765625 C2 13 2 13 0 12 C0 8.04 0 4.08 0 0 Z " fill="#0D9ED1" transform="translate(7,114)"/>
<path d="M0 0 C1.03447266 0.28617187 1.03447266 0.28617187 2.08984375 0.578125 C2.74082031 0.75859375 3.39179687 0.9390625 4.0625 1.125 C5.72644675 1.47165557 7.39193851 1.81176972 9.0625 2.125 C8.0725 3.61 8.0725 3.61 7.0625 5.125 C6.4025 5.125 5.7425 5.125 5.0625 5.125 C5.0625 5.785 5.0625 6.445 5.0625 7.125 C5.7225 7.455 6.3825 7.785 7.0625 8.125 C5.4125 8.125 3.7625 8.125 2.0625 8.125 C1.77375 7.485625 1.485 6.84625 1.1875 6.1875 C0.23426549 3.97293921 0.23426549 3.97293921 -1.9375 3.125 C-1.9375 3.785 -1.9375 4.445 -1.9375 5.125 C-4.5775 4.795 -7.2175 4.465 -9.9375 4.125 C-9.1875 2.1875 -9.1875 2.1875 -7.9375 0.125 C-4.96948122 -0.98246969 -3.00842941 -0.86976375 0 0 Z " fill="#8364B9" transform="translate(85.9375,79.875)"/>
<path d="M0 0 C0.66 0 1.32 0 2 0 C2.33 2.97 2.66 5.94 3 9 C11.25 9 19.5 9 28 9 C28 9.33 28 9.66 28 10 C27.32420898 10.02505615 26.64841797 10.0501123 25.95214844 10.07592773 C22.8845832 10.19210742 19.81730842 10.31473437 16.75 10.4375 C15.68652344 10.47681641 14.62304688 10.51613281 13.52734375 10.55664062 C11.99013672 10.61948242 11.99013672 10.61948242 10.421875 10.68359375 C9.47924805 10.72025146 8.53662109 10.75690918 7.56542969 10.79467773 C5.03718621 10.92108209 5.03718621 10.92108209 2.80175781 11.57836914 C0.31227655 12.16093474 -0.87482735 11.2902834 -3 10 C-2.690625 9.0925 -2.38125 8.185 -2.0625 7.25 C-1.2727737 4.83436662 -0.57050703 2.47219715 0 0 Z " fill="#39C2D6" transform="translate(17,67)"/>
<path d="M0 0 C2.875 1.5 2.875 1.5 5 4 C5.42242213 6.80188855 5.23816991 9.1419611 5 12 C4.67 12 4.34 12 4 12 C4 9.69 4 7.38 4 5 C2.41693353 4.83081732 0.83353281 4.66476064 -0.75 4.5 C-2.07257812 4.36078125 -2.07257812 4.36078125 -3.421875 4.21875 C-6.23304835 3.94363687 -6.23304835 3.94363687 -10 4 C-9.77815146 8.89702137 -9.77815146 8.89702137 -7.1875 12.8125 C-5.14281205 13.92247346 -3.11044162 15.02015211 -1 16 C-2.918125 15.8453125 -2.918125 15.8453125 -4.875 15.6875 C-5.95394531 15.60048828 -5.95394531 15.60048828 -7.0546875 15.51171875 C-9 15 -9 15 -11 12 C-11.52732332 8.93597398 -11.55311365 6.0620828 -11 3 C-7.6957024 -0.20711237 -4.48319609 -0.65379943 0 0 Z " fill="#B0E3E4" transform="translate(33,4)"/>
<path d="M0 0 C11.22 0 22.44 0 34 0 C34 0.33 34 0.66 34 1 C33.04746338 1.02187378 33.04746338 1.02187378 32.07568359 1.04418945 C29.17486919 1.11905089 26.27515794 1.21558426 23.375 1.3125 C21.87646484 1.34633789 21.87646484 1.34633789 20.34765625 1.38085938 C14.74407315 1.5849634 10.95185716 2.15268213 6 5 C2.625 4.6875 2.625 4.6875 0 4 C0 2.68 0 1.36 0 0 Z " fill="#E375AC" transform="translate(86,34)"/>
<path d="M0 0 C4.03321763 1.21934486 7.54269479 2.55954927 11 5 C11 5.66 11 6.32 11 7 C11.66 7 12.32 7 13 7 C13 7.66 13 8.32 13 9 C13.66 9 14.32 9 15 9 C15.33 10.32 15.66 11.64 16 13 C15.01 12.67 14.02 12.34 13 12 C13 11.34 13 10.68 13 10 C11.68 10.33 10.36 10.66 9 11 C8.34 10.01 7.68 9.02 7 8 C3.44327821 6.7811879 3.44327821 6.7811879 0 6 C0.33 5.01 0.66 4.02 1 3 C0.67 2.01 0.34 1.02 0 0 Z " fill="#EDA7BF" transform="translate(120,34)"/>
<path d="M0 0 C0.33 0 0.66 0 1 0 C1 6.6 1 13.2 1 20 C0.67 20 0.34 20 0 20 C0 17.36 0 14.72 0 12 C-0.99 12.33 -1.98 12.66 -3 13 C-3.33 12.34 -3.66 11.68 -4 11 C-4.99 11.495 -4.99 11.495 -6 12 C-5.55166054 7.0682659 -3.13973905 3.6807076 0 0 Z " fill="#188EB6" transform="translate(20,92)"/>
<path d="M0 0 C3.34252724 -0.07427838 5.8035914 -0.06546953 9 1 C9.33 1.99 9.66 2.98 10 4 C10.99 4 11.98 4 13 4 C13.33 5.98 13.66 7.96 14 10 C12.35 9.67 10.7 9.34 9 9 C9 8.34 9 7.68 9 7 C8.2575 6.7525 7.515 6.505 6.75 6.25 C3.78592854 4.90269479 2.12500716 3.43982304 0 1 C0 0.67 0 0.34 0 0 Z " fill="#F8769D" transform="translate(120,40)"/>
<path d="M0 0 C1.32 0 2.64 0 4 0 C5.32229189 2.64458379 5.09677194 4.67761301 5.0625 7.625 C5.05347656 8.62789062 5.04445313 9.63078125 5.03515625 10.6640625 C5.02355469 11.43492188 5.01195312 12.20578125 5 13 C4.01 12.01 3.02 11.02 2 10 C1.01 10.495 1.01 10.495 0 11 C-1.32234763 7.03295711 -1.12733524 3.94567332 0 0 Z " fill="#23C8D6" transform="translate(15,57)"/>
<path d="M0 0 C1.32 0.33 2.64 0.66 4 1 C4 1.99 4 2.98 4 4 C4.99 4.33 5.98 4.66 7 5 C8.61050328 13.03501094 8.61050328 13.03501094 6.0625 17.0625 C5.381875 17.701875 4.70125 18.34125 4 19 C3.34 18.67 2.68 18.34 2 18 C2.66 17.01 3.32 16.02 4 15 C4.64497577 8.5502423 3.57369533 5.360543 0 0 Z " fill="#79CED3" transform="translate(49,54)"/>
<path d="M0 0 C7.83576722 0.29292588 15.7383798 0.91802656 21.66796875 6.59765625 C23.0625 8.25 23.0625 8.25 25 11 C24.67 11.66 24.34 12.32 24 13 C23.46375 12.21625 22.9275 11.4325 22.375 10.625 C19.69757158 7.66573701 17.81566975 6.95391744 14 6 C14 5.34 14 4.68 14 4 C13.32453125 3.87882812 12.6490625 3.75765625 11.953125 3.6328125 C11.06109375 3.46523438 10.1690625 3.29765625 9.25 3.125 C7.92742188 2.88136719 7.92742188 2.88136719 6.578125 2.6328125 C4.13052256 2.03203736 2.19400143 1.22002883 0 0 Z " fill="#79D9D7" transform="translate(43,39)"/>
<path d="M0 0 C0.99 0.66 1.98 1.32 3 2 C3.51171875 4.6015625 3.51171875 4.6015625 3.6875 7.625 C3.75324219 8.62789062 3.81898437 9.63078125 3.88671875 10.6640625 C3.92410156 11.43492188 3.96148437 12.20578125 4 13 C2.02 14.32 0.04 15.64 -2 17 C-2 14 -2 14 0 11 C0.24187651 8.25481679 0.24187651 8.25481679 0.125 5.3125 C0.10695313 4.31863281 0.08890625 3.32476562 0.0703125 2.30078125 C0.04710938 1.54152344 0.02390625 0.78226563 0 0 Z " fill="#D492C1" transform="translate(122,56)"/>
<path d="M0 0 C1.69141656 0.08963062 3.37959602 0.24577676 5.0625 0.4375 C6.44115234 0.59025391 6.44115234 0.59025391 7.84765625 0.74609375 C8.55792969 0.82988281 9.26820312 0.91367188 10 1 C9.67 1.66 9.34 2.32 9 3 C5.62346356 3.29837403 2.28922047 3.41601614 -1.09765625 3.47851562 C-5.35025986 3.58397335 -5.35025986 3.58397335 -9.0078125 5.53515625 C-9.33523437 6.01855469 -9.66265625 6.50195312 -10 7 C-10 4 -10 4 -9 1 C-7.700625 1.020625 -6.40125 1.04125 -5.0625 1.0625 C-3.70834367 1.08399454 -2.35243917 1.07148199 -1 1 C-0.67 0.67 -0.34 0.34 0 0 Z " fill="#8355AE" transform="translate(97,88)"/>
<path d="M0 0 C3.63 0 7.26 0 11 0 C11.33 0.99 11.66 1.98 12 3 C11.34 3 10.68 3 10 3 C10 3.66 10 4.32 10 5 C3.9453125 4.609375 3.9453125 4.609375 2 4 C1.34 2.68 0.68 1.36 0 0 Z " fill="#F6789E" transform="translate(110,35)"/>
<path d="M0 0 C-0.66 1.32 -1.32 2.64 -2 4 C-9.75 4.125 -9.75 4.125 -12 3 C-11.67 2.01 -11.34 1.02 -11 0 C-7.38357376 -1.6691198 -3.79425988 -0.65669883 0 0 Z " fill="#C26FB8" transform="translate(127,73)"/>
<path d="M0 0 C2.125 0.9375 2.125 0.9375 4 2 C4 5 4 5 2 8 C0.68 7.67 -0.64 7.34 -2 7 C-2 5.02 -2 3.04 -2 1 C-1.34 0.67 -0.68 0.34 0 0 Z " fill="#29C7D1" transform="translate(42,18)"/>
<path d="M0 0 C-1.20381448 2.49361571 -2.45428722 4.68143083 -4 7 C-4.99 7.33 -5.98 7.66 -7 8 C-7.33 10.64 -7.66 13.28 -8 16 C-8.66 15.67 -9.32 15.34 -10 15 C-9.78520698 8.87839891 -8.63563563 5.82604211 -4.5703125 1.25 C-3 0 -3 0 0 0 Z " fill="#D6A7CB" transform="translate(82,36)"/>
<path d="M0 0 C1.43861294 0.08746284 2.87597508 0.19565348 4.3125 0.3125 C5.11300781 0.37050781 5.91351563 0.42851562 6.73828125 0.48828125 C9.40600114 1.09185863 10.37146639 1.82862186 12 4 C12.1875 6.6875 12.1875 6.6875 12 9 C11.01 9.495 11.01 9.495 10 10 C9.731875 9.236875 9.46375 8.47375 9.1875 7.6875 C7.72400755 4.29852652 7.72400755 4.29852652 5 2 C1.85078091 2.23283149 1.85078091 2.23283149 -1 3 C-0.67 2.01 -0.34 1.02 0 0 Z " fill="#57CED0" transform="translate(38,16)"/>
<path d="M0 0 C1.55241484 3.10482967 0.5828143 5.649602 -0.21875 8.9296875 C-1 11 -1 11 -3.125 12.625 C-6.97055614 13.12659428 -10.17529917 12.64825438 -14 12 C-14 11.67 -14 11.34 -14 11 C-10.97265625 10.75585938 -10.97265625 10.75585938 -7.9453125 10.51171875 C-5.60480784 10.12606964 -5.60480784 10.12606964 -4 7 C-3.01 7.33 -2.02 7.66 -1 8 C-1.020625 6.865625 -1.04125 5.73125 -1.0625 4.5625 C-1 1 -1 1 0 0 Z " fill="#D3B5D3" transform="translate(89,51)"/>
<path d="M0 0 C1.32 0.33 2.64 0.66 4 1 C2.43537634 5.22448388 -0.41754984 7.40096753 -4 10 C-6.875 10.8125 -6.875 10.8125 -9 11 C-5.25 8 -5.25 8 -3 8 C-3 7.34 -3 6.68 -3 6 C-3.66 5.67 -4.32 5.34 -5 5 C-3.35 4.67 -1.7 4.34 0 4 C0 2.68 0 1.36 0 0 Z " fill="#92C4D7" transform="translate(64,116)"/>
<path d="M0 0 C1.32 0.66 2.64 1.32 4 2 C-0.50552315 5.10380484 -3.66396635 7.15304973 -9.1875 7.0625 C-11.0746875 7.0315625 -11.0746875 7.0315625 -13 7 C-13 6.67 -13 6.34 -13 6 C-11.02 6 -9.04 6 -7 6 C-7 5.34 -7 4.68 -7 4 C-5.02 4 -3.04 4 -1 4 C-0.67 2.68 -0.34 1.36 0 0 Z " fill="#C6A0CA" transform="translate(125,84)"/>
<path d="M0 0 C0.99 0 1.98 0 3 0 C2.49396008 2.16874252 2.00016187 3.99967627 1 6 C0.34 6 -0.32 6 -1 6 C-1.66 7.32 -2.32 8.64 -3 10 C-3.66 9.67 -4.32 9.34 -5 9 C-5 7.35 -5 5.7 -5 4 C-2.525 4.495 -2.525 4.495 0 5 C-0.2784375 4.0409375 -0.2784375 4.0409375 -0.5625 3.0625 C-0.706875 2.381875 -0.85125 1.70125 -1 1 C-0.67 0.67 -0.34 0.34 0 0 Z " fill="#D69AC7" transform="translate(134,75)"/>
<path d="M0 0 C1.32 0.33 2.64 0.66 4 1 C3.68289062 1.83789062 3.36578125 2.67578125 3.0390625 3.5390625 C1.92971749 7.2340989 1.59270398 10.52889627 1.375 14.375 C1.30023438 15.62023438 1.22546875 16.86546875 1.1484375 18.1484375 C1.09945313 19.08945312 1.05046875 20.03046875 1 21 C0.67 21 0.34 21 0 21 C0 14.07 0 7.14 0 0 Z " fill="#41D1D3" transform="translate(6,39)"/>
<path d="M0 0 C0.66 0.33 1.32 0.66 2 1 C2.19294408 5.82360189 1.75747614 9.49646738 0 14 C-1.65 14.33 -3.3 14.66 -5 15 C-4.67 14.34 -4.34 13.68 -4 13 C-3.34 13 -2.68 13 -2 13 C-0.24252386 8.49646738 0.19294408 4.82360189 0 0 Z " fill="#A1CCD9" transform="translate(54,97)"/>
<path d="M0 0 C2.31 0.33 4.62 0.66 7 1 C7 2.98 7 4.96 7 7 C1.125 3.375 1.125 3.375 0 0 Z " fill="#E29FC3" transform="translate(115,49)"/>
<path d="M0 0 C0.33 0 0.66 0 1 0 C1.1953125 6.0546875 1.1953125 6.0546875 1 8 C0.34 8.66 -0.32 9.32 -1 10 C-1.99 10 -2.98 10 -4 10 C-3.67 8.02 -3.34 6.04 -3 4 C-2.67 4.66 -2.34 5.32 -2 6 C-1.34 6 -0.68 6 0 6 C0 4.02 0 2.04 0 0 Z " fill="#71DBDB" transform="translate(36,9)"/>
<path d="M0 0 C-0.33 0.66 -0.66 1.32 -1 2 C-1.78375 2.144375 -2.5675 2.28875 -3.375 2.4375 C-6.25125721 3.05384083 -7.16384707 3.77728856 -9 6 C-9.33 4.35 -9.66 2.7 -10 1 C-6.59437148 0.22157062 -3.49234244 -0.09978121 0 0 Z " fill="#1BADCF" transform="translate(27,89)"/>
<path d="M0 0 C2.97 0.495 2.97 0.495 6 1 C2.99382731 4.00617269 0.17618402 3.59585316 -4 4 C-3.01 3.67 -2.02 3.34 -1 3 C-0.67 2.01 -0.34 1.02 0 0 Z " fill="#2E94BC" transform="translate(51,124)"/>
<path d="M0 0 C4.75 0.75 4.75 0.75 7 3 C5.35 3.33 3.7 3.66 2 4 C2 3.34 2 2.68 2 2 C1.34 2 0.68 2 0 2 C0 2.66 0 3.32 0 4 C-0.66 3.67 -1.32 3.34 -2 3 C-1.34 2.01 -0.68 1.02 0 0 Z " fill="#745CAD" transform="translate(77,83)"/>
<path d="M0 0 C0.33 0.99 0.66 1.98 1 3 C0.67 3.66 0.34 4.32 0 5 C0.99 5.33 1.98 5.66 3 6 C3.33 6.66 3.66 7.32 4 8 C1.0625 7.625 1.0625 7.625 -2 7 C-2.33 6.34 -2.66 5.68 -3 5 C-2.34 5 -1.68 5 -1 5 C-0.67 3.35 -0.34 1.7 0 0 Z " fill="#37D6D5" transform="translate(28,11)"/>
<path d="M0 0 C1.485 0.99 1.485 0.99 3 2 C2.67 4.97 2.34 7.94 2 11 C1.67 11 1.34 11 1 11 C0.67 7.37 0.34 3.74 0 0 Z " fill="#E4CDDE" transform="translate(122,56)"/>
<path d="M0 0 C0.33 0 0.66 0 1 0 C1 3.3 1 6.6 1 10 C0.01 10.33 -0.98 10.66 -2 11 C-1.855625 10.29875 -1.71125 9.5975 -1.5625 8.875 C-0.98521625 5.92443859 -0.48304859 2.96729849 0 0 Z " fill="#25BBC6" transform="translate(57,62)"/>
<path d="M0 0 C2.31 0.33 4.62 0.66 7 1 C7 1.33 7 1.66 7 2 C5.576875 2.433125 5.576875 2.433125 4.125 2.875 C0.94788422 3.76825109 0.94788422 3.76825109 -1 6 C-1 3 -1 3 0 0 Z " fill="#755CAC" transform="translate(88,89)"/>
</svg>
